Coordinates
version=1
nRows=24
nColumns=24
inDegrees=yes

Units are S.I. units (second, meters, Newtons, ...)
Angles are in degrees.

endheader
time	pelvis_tilt	pelvis_list	pelvis_rotation	pelvis_tx	pelvis_ty	pelvis_tz	hip_flexion_r	hip_adduction_r	hip_rotation_r	knee_angle_r	ankle_angle_r	subtalar_angle_r	mtp_angle_r	hip_flexion_l	hip_adduction_l	hip_rotation_l	knee_angle_l	ankle_angle_l	subtalar_angle_l	mtp_angle_l	lumbar_extension	lumbar_bending	lumbar_rotation
      5.35000000	     59.80445624	    -17.00083772	      3.38874173	      0.53517807	      0.95714575	     -0.23664561	      4.79354047	     -9.75212701	    -19.15514275	    -63.86702375	    -17.03166768	      0.00000000	      0.00000000	     13.00219445	    -15.76793290	      8.68521766	    -66.65900728	    -25.43525308	      0.00000000	      0.00000000	      0.00000000	      0.00000000	      0.00000000
      5.36000000	     59.80759698	    -17.00260254	      3.38706002	      0.53520073	      0.95716286	     -0.23663686	      4.77589620	     -9.76730681	    -19.15052318	    -63.86485436	    -17.02021227	      0.00000000	      0.00000000	     12.98378356	    -15.73482551	      8.58818331	    -66.63300288	    -25.42621883	      0.00000000	      0.00000000	      0.00000000	      0.00000000	      0.00000000
      5.37000000	     59.81051132	    -17.00414712	      3.38218585	      0.53522511	      0.95719341	     -0.23662734	      4.75883749	     -9.78046326	    -19.14416871	    -63.86553740	    -17.01287795	      0.00000000	      0.00000000	     12.96260857	    -15.70351292	      8.48304316	    -66.60351461	    -25.41616046	      0.00000000	      0.00000000	      0.00000000	      0.00000000	      0.00000000
      5.38000000	     59.81220584	    -17.00429355	      3.37387146	      0.53524830	      0.95723439	     -0.23661531	      4.74237213	     -9.78986926	    -19.13638726	    -63.86919858	    -17.00886132	      0.00000000	      0.00000000	     12.93920802	    -15.67573583	      8.37087668	    -66.56887028	    -25.40827079	      0.00000000	      0.00000000	      0.00000000	      0.00000000	      0.00000000
      5.39000000	     59.81168709	    -17.00300272	      3.36286559	      0.53527015	      0.95728311	     -0.23659793	      4.72700304	     -9.79604669	    -19.12549259	    -63.87432697	    -17.00549112	      0.00000000	      0.00000000	     12.91445384	    -15.65306035	      8.25506567	    -66.52740025	    -25.40468691	      0.00000000	      0.00000000	      0.00000000	      0.00000000	      0.00000000
      5.40000000	     59.80849660	    -17.00181997	      3.35094442	      0.53529328	      0.95733250	     -0.23657869	      4.71382909	     -9.80140423	    -19.10873907	    -63.87826284	    -16.99941022	      0.00000000	      0.00000000	     12.88934750	    -15.63616283	      8.14073071	    -66.47896626	    -25.40605634	      0.00000000	      0.00000000	      0.00000000	      0.00000000	      0.00000000
      5.41000000	     59.80306901	    -17.00283806	      3.33994125	      0.53531867	      0.95736798	     -0.23656693	      4.70396711	     -9.80770230	    -19.08474899	    -63.87906761	    -16.98809240	      0.00000000	      0.00000000	     12.86506564	    -15.62379380	      8.03322704	    -66.42584047	    -25.41162400	      0.00000000	      0.00000000	      0.00000000	      0.00000000	      0.00000000
      5.42000000	     59.79683216	    -17.00734242	      3.33059971	      0.53534311	      0.95738695	     -0.23656668	      4.69770854	     -9.81407169	    -19.05550175	    -63.87735218	    -16.97093017	      0.00000000	      0.00000000	     12.84325046	    -15.61260576	      7.93657868	    -66.37222471	    -25.41969623	      0.00000000	      0.00000000	      0.00000000	      0.00000000	      0.00000000
      5.43000000	     59.79150861	    -17.01495183	      3.32244877	      0.53536296	      0.95740697	     -0.23657374	      4.69411796	     -9.81810882	    -19.02607111	    -63.87629584	    -16.94938546	      0.00000000	      0.00000000	     12.82581607	    -15.59907261	      7.85279754	    -66.32269555	    -25.42827296	      0.00000000	      0.00000000	      0.00000000	      0.00000000	      0.00000000
      5.44000000	     59.78784071	    -17.02385206	      3.31488067	      0.53537927	      0.95743999	     -0.23658056	      4.69152826	     -9.81924612	    -19.00218507	    -63.87956423	    -16.92627699	      0.00000000	      0.00000000	     12.81399851	    -15.58213107	      7.78210993	    -66.28057003	    -25.43566985	      0.00000000	      0.00000000	      0.00000000	      0.00000000	      0.00000000
      5.45000000	     59.78505525	    -17.03193051	      3.30798997	      0.53539790	      0.95747602	     -0.23657854	      4.68851425	     -9.82054016	    -18.98756144	    -63.88890824	    -16.90474494	      0.00000000	      0.00000000	     12.80763201	    -15.56349232	      7.72340716	    -66.24699845	    -25.44095345	      0.00000000	      0.00000000	      0.00000000	      0.00000000	      0.00000000
      5.46000000	     59.78152777	    -17.03747303	      3.30192746	      0.53542449	      0.95749836	     -0.23657155	      4.68437392	     -9.82655572	    -18.98287665	    -63.90347603	    -16.88751410	      0.00000000	      0.00000000	     12.80539705	    -15.54515337	      7.67452391	    -66.22100717	    -25.44407003	      0.00000000	      0.00000000	      0.00000000	      0.00000000	      0.00000000
      5.47000000	     59.77599247	    -17.03960939	      3.29606944	      0.53546111	      0.95750456	     -0.23657802	      4.67918070	     -9.84057747	    -18.98589067	    -63.92053376	    -16.87655678	      0.00000000	      0.00000000	     12.80552638	    -15.52719975	      7.63267296	    -66.20022332	    -25.44570056	      0.00000000	      0.00000000	      0.00000000	      0.00000000	      0.00000000
      5.48000000	     59.76837982	    -17.03913551	      3.28947107	      0.53550596	      0.95750705	     -0.23660080	      4.67386324	     -9.86437767	    -18.99182760	    -63.93644963	    -16.87294245	      0.00000000	      0.00000000	     12.80617582	    -15.50812274	      7.59517187	    -66.18175270	    -25.44696012	      0.00000000	      0.00000000	      0.00000000	      0.00000000	      0.00000000
      5.49000000	     59.75966076	    -17.03777583	      3.28117570	      0.53555436	      0.95751264	     -0.23662339	      4.66976201	     -9.89808511	    -18.99510103	    -63.94830337	    -16.87689835	      0.00000000	      0.00000000	     12.80542885	    -15.48643523	      7.55994539	    -66.16280052	    -25.44904565	      0.00000000	      0.00000000	      0.00000000	      0.00000000	      0.00000000
      5.50000000	     59.75107495	    -17.03569296	      3.26970300	      0.53559932	      0.95751452	     -0.23665093	      4.66773121	     -9.93866560	    -18.99215209	    -63.95576795	    -16.88801099	      0.00000000	      0.00000000	     12.80130019	    -15.46179217	      7.52552224	    -66.14101257	    -25.45290816	      0.00000000	      0.00000000	      0.00000000	      0.00000000	      0.00000000
      5.51000000	     59.74358799	    -17.03109478	      3.25359789	      0.53563153	      0.95751111	     -0.23670836	      4.66780641	     -9.98050313	    -18.98247126	    -63.96121258	    -16.90524832	      0.00000000	      0.00000000	     12.79197261	    -15.43528104	      7.49085277	    -66.11471382	    -25.45901291	      0.00000000	      0.00000000	      0.00000000	      0.00000000	      0.00000000
      5.52000000	     59.73779672	    -17.02260684	      3.23284182	      0.53564611	      0.95751679	     -0.23678202	      4.66956607	    -10.01880332	    -18.96712809	    -63.96772157	    -16.92679342	      0.00000000	      0.00000000	     12.77625283	    -15.40912431	      7.45529779	    -66.08314323	    -25.46724321	      0.00000000	      0.00000000	      0.00000000	      0.00000000	      0.00000000
      5.53000000	     59.73391217	    -17.01048385	      3.20873987	      0.53564873	      0.95754412	     -0.23681713	      4.67248936	    -10.05180244	    -18.94720907	    -63.97726000	    -16.95007089	      0.00000000	      0.00000000	     12.75401971	    -15.38605023	      7.41878401	    -66.04663304	    -25.47697136	      0.00000000	      0.00000000	      0.00000000	      0.00000000	      0.00000000
      5.54000000	     59.73154059	    -16.99527115	      3.18231940	      0.53564900	      0.95758582	     -0.23678956	      4.67600625	    -10.07991287	    -18.92328859	    -63.99043014	    -16.97218564	      0.00000000	      0.00000000	     12.72643819	    -15.36860467	      7.38191082	    -66.00661378	    -25.48726162	      0.00000000	      0.00000000	      0.00000000	      0.00000000	      0.00000000
      5.55000000	     59.72964804	    -16.97701655	      3.15374647	      0.53565204	      0.95762765	     -0.23671911	      4.67982119	    -10.10431359	    -18.89501399	    -64.00687981	    -16.99055884	      0.00000000	      0.00000000	     12.69577397	    -15.35848538	      7.34578372	    -65.96541576	    -25.49713106	      0.00000000	      0.00000000	      0.00000000	      0.00000000	      0.00000000
      5.56000000	     59.72714227	    -16.95637919	      3.12307047	      0.53565861	      0.95766763	     -0.23661484	      4.68469289	    -10.12655278	    -18.86090087	    -64.02547947	    -17.00346501	      0.00000000	      0.00000000	     12.66486848	    -15.35587380	      7.31153261	    -65.92588213	    -25.50578327	      0.00000000	      0.00000000	      0.00000000	      0.00000000	      0.00000000
      5.57000000	     59.72346155	    -16.93502288	      3.09035436	      0.53566708	      0.95770726	     -0.23647626	      4.69263566	    -10.14784807	    -18.81940396	    -64.04480074	    -17.01034192	      0.00000000	      0.00000000	     12.63646747	    -15.35927260	      7.27988972	    -65.89080159	    -25.51277457	      0.00000000	      0.00000000	      0.00000000	      0.00000000	      0.00000000
      5.58000000	     59.71835192	    -16.91448187	      3.05524253	      0.53567307	      0.95773940	     -0.23632537	      4.70587020	    -10.16813114	    -18.77060690	    -64.06393494	    -17.01173186	      0.00000000	      0.00000000	     12.61258042	    -15.36636604	      7.25124657	    -65.86226668	    -25.51811138	      0.00000000	      0.00000000	      0.00000000	      0.00000000	      0.00000000
